<?xml version="1.0" encoding="UTF-8" standalone="no"?>
<!-- Created with Inkscape (http://www.inkscape.org/) -->

<svg
   width="119.0625mm"
   height="297.00009mm"
   viewBox="0 0 119.0625 297.00009"
   version="1.1"
   id="svg1"
   inkscape:version="1.3.2 (091e20e, 2023-11-25, custom)"
   sodipodi:docname="logo-lesma.svg"
   inkscape:export-filename="logo-lesma.png"
   inkscape:export-xdpi="26.666666"
   inkscape:export-ydpi="26.666666"
   xmlns:inkscape="http://www.inkscape.org/namespaces/inkscape"
   xmlns:sodipodi="http://sodipodi.sourceforge.net/DTD/sodipodi-0.dtd"
   xmlns="http://www.w3.org/2000/svg"
   xmlns:svg="http://www.w3.org/2000/svg">
  <sodipodi:namedview
     id="namedview1"
     pagecolor="#ffffff"
     bordercolor="#000000"
     borderopacity="0.25"
     inkscape:showpageshadow="2"
     inkscape:pageopacity="0.0"
     inkscape:pagecheckerboard="0"
     inkscape:deskcolor="#d1d1d1"
     inkscape:document-units="mm"
     inkscape:zoom="0.9789084"
     inkscape:cx="311.06077"
     inkscape:cy="457.14185"
     inkscape:window-width="1920"
     inkscape:window-height="991"
     inkscape:window-x="-9"
     inkscape:window-y="-9"
     inkscape:window-maximized="1"
     inkscape:current-layer="g1"
     inkscape:export-bgcolor="#ffffff00" />
  <defs
     id="defs1">
    <inkscape:path-effect
       effect="fillet_chamfer"
       id="path-effect10"
       is_visible="true"
       lpeversion="1"
       nodesatellites_param="F,0,0,1,0,0,0,1 @ F,0,0,1,0,0,0,1 @ F,0,0,1,0,0,0,1 @ F,0,0,1,0,2.164897,0,1 @ F,0,0,1,0,2.164897,0,1 @ F,0,0,1,0,0,0,1 @ F,0,0,1,0,0,0,1 @ F,0,0,1,0,0,0,1 @ F,0,0,1,0,1.9636418,0,1 @ F,0,0,1,0,0,0,1 @ F,0,0,1,0,0,0,1 @ F,0,0,1,0,0,0,1 @ F,0,0,1,0,0,0,1 @ F,0,0,1,0,0,0,1 @ F,0,0,1,0,0,0,1 @ F,0,0,1,0,4.5234332,0,1 @ F,0,0,1,0,0,0,1 | F,0,0,1,0,0,0,1 @ F,0,0,1,0,0,0,1 @ F,0,0,1,0,0,0,1 @ F,0,0,1,0,0,0,1 @ F,0,0,1,0,0,0,1 @ F,0,0,1,0,0,0,1"
       radius="0"
       unit="px"
       method="auto"
       mode="F"
       chamfer_steps="1"
       flexible="false"
       use_knot_distance="true"
       apply_no_radius="true"
       apply_with_radius="true"
       only_selected="false"
       hide_knots="false" />
  </defs>
  <g
     inkscape:label="Camada 1"
     inkscape:groupmode="layer"
     id="layer1">
    <g
       id="g1">
      <g
         id="g6"
         transform="matrix(1.2406041,0,0,1.2399315,-40.440923,-14.834778)"
         style="stroke-width:0.806277">
        <rect
           style="fill:#1b1b21;fill-opacity:0.969871;stroke:#786c46;stroke-width:0.0814203;stroke-linecap:round;stroke-linejoin:bevel;stroke-miterlimit:0;stroke-opacity:0;paint-order:markers fill stroke"
           id="rect10-1"
           width="6.09132"
           height="27.378128"
           x="-85.847099"
           y="-103.10957"
           transform="matrix(-0.96149664,0.27481667,-0.08121388,-0.9966967,0,0)"
           ry="0.30980408" />
        <g
           id="path1"
           transform="matrix(1.0064784,0.22017853,-0.22278343,1.0183861,17.368039,-22.280494)"
           style="stroke-width:0.777993">
          <path
             style="color:#000000;fill:#1b1b21;fill-opacity:0.953096;stroke-width:0.777993;stroke-linecap:round;stroke-linejoin:bevel;stroke-miterlimit:0;-inkscape-stroke:none;paint-order:markers fill stroke"
             d="m 56.830603,59.522562 16.177118,28.392491 18.535185,-8.299335 a 9.9202824,9.9202824 13.883048 0 1 11.859304,2.931158 L 119.90734,103.58687 101.5227,80.15096 A 6.0232237,6.0232237 13.883048 0 0 94.322174,78.37127 L 73.007721,87.915053 67.452447,78.16498 56.830604,59.522562 a 5e-7,5e-7 150.32692 0 0 -10e-7,0 z"
             id="path3" />
          <rect
             style="fill:#1b1b21;fill-opacity:0.969871;stroke:#786c46;stroke-width:0.0783246;stroke-linecap:round;stroke-linejoin:bevel;stroke-miterlimit:0;stroke-opacity:0;paint-order:markers fill stroke"
             id="rect10-1-1"
             width="5.3781199"
             height="22.379147"
             x="-56.744812"
             y="-113.8914"
             transform="matrix(-0.89161195,0.45280033,-0.30153712,-0.95345444,0,0)"
             ry="0.25323686" />
          <path
             style="color:#000000;fill:#502d16;fill-opacity:1;stroke-width:0.777993;stroke-linecap:round;stroke-linejoin:bevel;stroke-miterlimit:0;-inkscape-stroke:none;paint-order:markers fill stroke"
             d="m 56.875,59.498047 -0.0444,0.02452 9.430883,18.858013 3.735636,7.744134 a 5.7724058,5.7724058 43.689964 0 0 2.93144,2.800362 4.0992801,4.0992801 175.07058 0 0 3.712565,-0.3202 l 14.921374,-8.942764 c 4.135199,-1.85158 8.999082,-0.649254 11.796882,2.914063 8.9e-4,0.0011 0.003,8.18e-4 0.004,0.002 l 7.50785,9.570944 8.99606,11.468121 0.0801,-0.0605 -16.50586,-21.041005 -1.87891,-2.396484 c -1.720975,-2.19382 -4.716886,-2.932447 -7.261721,-1.792969 l -2.777344,1.24414 -13.892654,5.601955 a 5.435289,5.435289 17.807542 0 1 -6.620592,-2.126601 l -7.54142,-11.872347 z m 39.402344,18.417969 c 1.086349,-0.09242 2.175204,0.115471 3.146292,0.593758 0.784164,0.386223 1.491534,0.948763 2.058784,1.671867 l 1.51367,1.927734 c -2.7396,-3.081868 -7.043569,-4.143814 -10.90234,-2.6875 l 2.248047,-1.005859 c 0.62585,-0.280232 1.281017,-0.444316 1.935547,-0.5 z"
             id="path4"
             sodipodi:nodetypes="ccccccscccccccccccssccccs"
             inkscape:path-effect="#path-effect10"
             inkscape:original-d="m 56.875,59.498047 -0.0444,0.02452 9.430883,18.858013 4.676229,9.694022 3.846476,1.643184 16.77831,-10.055674 c 4.135199,-1.85158 8.999082,-0.649254 11.796882,2.914063 8.9e-4,0.0011 0.003,8.18e-4 0.004,0.002 l 8.71981,11.115946 7.7841,9.923119 0.0801,-0.0605 -16.50586,-21.041005 -1.87891,-2.396484 c -1.720975,-2.19382 -4.716886,-2.932447 -7.261721,-1.792969 l -2.777344,1.24414 -18.087865,7.293596 -9.966801,-15.690589 z m 39.402344,18.417969 c 1.086349,-0.09242 2.175204,0.115471 3.146292,0.593758 0.784164,0.386223 1.491534,0.948763 2.058784,1.671867 l 1.51367,1.927734 c -2.7396,-3.081868 -7.043569,-4.143814 -10.90234,-2.6875 l 2.248047,-1.005859 c 0.62585,-0.280232 1.281017,-0.444316 1.935547,-0.5 z" />
        </g>
        <path
           style="fill:#1b1b21;fill-opacity:0.972549;stroke:none;stroke-width:0.0806277;stroke-linecap:round;stroke-linejoin:bevel;stroke-miterlimit:0;stroke-opacity:1;paint-order:markers fill stroke"
           d="m 62.491661,55.05787 0.399916,-7.318018 -1.419525,3.227683 -3.347736,-2.585463 z"
           id="path5"
           sodipodi:nodetypes="ccccc" />
        <ellipse
           style="fill:#1b1b21;fill-opacity:0.972549;stroke:none;stroke-width:0.0806277;stroke-linejoin:round;stroke-miterlimit:0;stroke-dasharray:none;stroke-opacity:1;paint-order:markers fill stroke"
           id="path6"
           cx="62.874825"
           cy="47.806492"
           rx="0.37164056"
           ry="0.30406955" />
        <ellipse
           style="fill:#1b1b21;fill-opacity:0.972549;stroke:none;stroke-width:0.0806277;stroke-linejoin:round;stroke-miterlimit:0;stroke-dasharray:none;stroke-opacity:1;paint-order:markers fill stroke"
           id="path6-6"
           cx="58.196365"
           cy="48.436565"
           rx="0.37164056"
           ry="0.30406955" />
      </g>
    </g>
  </g>
</svg>
